<svg width="470" height="114" viewBox="0 0 470 114" fill="none" xmlns="http://www.w3.org/2000/svg">
<path d="M138.848 86.8998V27.4003C138.848 26.8901 139.261 26.5014 139.747 26.5014H151.506C152.016 26.5014 152.405 26.9144 152.405 27.4003V86.8998C152.405 87.41 151.992 87.7988 151.506 87.7988H139.747C139.261 87.7988 138.848 87.3857 138.848 86.8998Z" fill="#3C3E6A"/>
<path d="M201.725 48.5373C204.227 51.5257 205.466 56.0203 205.466 62.0699V86.8998C205.466 87.41 205.053 87.7988 204.567 87.7988H193.246C192.735 87.7988 192.347 87.3857 192.347 86.8998V62.6773C192.347 59.7861 191.812 57.6724 190.743 56.3362C189.674 54.9999 187.998 54.344 185.738 54.344C183.017 54.344 180.831 55.2186 179.178 56.9436C177.526 58.6928 176.7 61.0009 176.7 63.8921V86.8998C176.7 87.41 176.287 87.7988 175.801 87.7988H164.48C163.97 87.7988 163.581 87.3857 163.581 86.8998V46.0106C163.581 45.5004 163.994 45.1117 164.48 45.1117H175.437C175.947 45.1117 176.336 45.5247 176.336 46.0106V48.5373C176.336 49.3877 177.356 49.7521 177.939 49.1204C179.154 47.7842 180.588 46.7152 182.215 45.8891C184.621 44.6744 187.342 44.067 190.354 44.067C195.432 44.067 199.222 45.549 201.725 48.5373Z" fill="#3C3E6A"/>
<path d="M220.894 87.1428C217.881 86.3168 215.257 85.1749 213.022 83.6929C212.658 83.4499 212.536 82.9883 212.682 82.5996L215.5 75.2866C215.695 74.7521 216.351 74.5578 216.836 74.8493C218.902 76.137 221.137 77.1574 223.566 77.9106C226.36 78.7852 229.154 79.2225 231.997 79.2225C234.013 79.2225 235.617 78.8824 236.734 78.2264C237.852 77.5704 238.435 76.6472 238.435 75.481C238.435 74.4363 238.046 73.6346 237.269 73.0515C236.491 72.4684 235.009 71.9582 232.871 71.4966L225.923 69.9417C221.817 69.0184 218.78 67.585 216.836 65.6414C214.893 63.6977 213.921 61.0495 213.921 57.6725C213.921 55 214.698 52.6676 216.229 50.6268C217.76 48.6103 219.946 47.0068 222.74 45.8406C225.558 44.6744 228.765 44.0913 232.361 44.0913C235.422 44.0913 238.411 44.5529 241.326 45.4761C243.974 46.3265 246.38 47.4927 248.542 48.9747C248.906 49.2176 249.028 49.6793 248.858 50.068L246.064 57.0651C245.845 57.5996 245.213 57.7939 244.728 57.4781C240.524 54.757 236.37 53.3965 232.264 53.3965C230.223 53.3965 228.644 53.7366 227.478 54.4412C226.312 55.1457 225.729 56.1175 225.729 57.4052C225.729 58.3284 226.069 59.0573 226.773 59.5675C227.478 60.0777 228.693 60.5879 230.418 61.0495L237.633 62.7016C241.982 63.6977 245.165 65.1797 247.157 67.172C249.149 69.1642 250.17 71.8853 250.17 75.3109C250.17 79.4169 248.542 82.6482 245.262 85.0048C241.982 87.3615 237.488 88.5277 231.73 88.5277C227.794 88.5034 224.174 88.0418 220.894 87.1428Z" fill="#3C3E6A"/>
<path d="M293.853 46.8853C296.72 48.7803 298.955 51.4042 300.558 54.8056C302.162 58.2069 302.939 62.0942 302.939 66.4917C302.939 70.8891 302.138 74.7764 300.558 78.1049C298.955 81.4334 296.744 84.0087 293.901 85.8065C291.059 87.6044 287.779 88.5033 284.086 88.5033C281.195 88.5033 278.571 87.9202 276.214 86.7298C274.684 85.9523 273.396 84.9805 272.327 83.8143C271.768 83.2069 270.772 83.6442 270.772 84.446V102.546C270.772 103.056 270.359 103.445 269.873 103.445H258.552C258.041 103.445 257.653 103.032 257.653 102.546V46.0106C257.653 45.5004 258.066 45.1117 258.552 45.1117H269.679C270.189 45.1117 270.578 45.5247 270.578 46.0106V48.3187C270.578 49.1447 271.598 49.5578 272.133 48.9504C273.202 47.7356 274.514 46.7395 276.044 45.9377C278.425 44.6987 281.098 44.067 284.038 44.067C287.73 44.067 290.986 44.9902 293.853 46.8853ZM287.39 75.4081C289.067 73.343 289.917 70.3789 289.917 66.4917C289.917 62.5558 289.067 59.4946 287.39 57.308C285.714 55.1457 283.333 54.0524 280.247 54.0524C277.162 54.0524 274.805 55.1214 273.105 57.2351C271.428 59.3488 270.578 62.3857 270.578 66.3216C270.578 70.2089 271.428 73.1972 273.105 75.3109C274.781 77.4246 277.162 78.4936 280.247 78.4936C283.333 78.4936 285.69 77.4732 287.39 75.4081Z" fill="#3C3E6A"/>
<path d="M311.418 24.5821H323.688C324.198 24.5821 324.587 24.9951 324.587 25.481V35.9281C324.587 36.4383 324.174 36.827 323.688 36.827H311.418C310.908 36.827 310.52 36.414 310.52 35.9281V25.481C310.52 24.9951 310.933 24.5821 311.418 24.5821ZM310.957 86.8999V46.0107C310.957 45.5005 311.37 45.1117 311.856 45.1117H323.177C323.688 45.1117 324.076 45.5247 324.076 46.0107V86.8999C324.076 87.4101 323.663 87.7988 323.177 87.7988H311.856C311.346 87.7988 310.957 87.3858 310.957 86.8999Z" fill="#3C3E6A"/>
<path d="M364.626 53.9553C364.65 54.4412 364.31 54.8785 363.824 54.9271L357.313 55.6074C353.668 55.9475 351.069 56.9922 349.562 58.6929C348.056 60.3936 347.303 62.6774 347.303 65.5199V86.8756C347.303 87.3858 346.89 87.7746 346.404 87.7746H335.082C334.572 87.7746 334.183 87.3615 334.183 86.8756V46.0107C334.183 45.5005 334.596 45.1118 335.082 45.1118H345.869C346.38 45.1118 346.768 45.5248 346.768 46.0107V49.0233C346.768 49.898 347.862 50.2624 348.396 49.5578C350.85 46.3751 354.737 44.6016 360.082 44.2371L362.998 44.0428C363.508 44.0185 363.921 44.3829 363.97 44.8931L364.626 53.9553Z" fill="#3C3E6A"/>
<path d="M405.685 68.9212H379.834C379.276 68.9212 378.838 69.4314 378.936 69.9902C379.421 72.8814 380.49 74.9951 382.118 76.3556C383.94 77.8862 386.54 78.6637 389.893 78.6637C392.104 78.6637 394.29 78.2993 396.453 77.5704C398.25 76.963 399.927 76.1613 401.482 75.1409C401.968 74.825 402.624 74.9951 402.842 75.5539L405.636 82.6238C405.782 83.0126 405.661 83.4742 405.345 83.7171C403.377 85.1506 401.02 86.2682 398.299 87.1185C395.311 88.0417 392.322 88.5033 389.31 88.5033C382.118 88.5033 376.457 86.5111 372.303 82.551C368.148 78.5908 366.083 73.1729 366.083 66.3216C366.083 61.9727 366.982 58.1097 368.78 54.757C370.578 51.4042 373.08 48.7803 376.263 46.8853C379.446 44.9902 383.066 44.067 387.123 44.067C393.1 44.067 397.837 46.0106 401.336 49.8979C404.834 53.7852 406.608 59.0573 406.608 65.7142V68.0223C406.608 68.5325 406.195 68.9212 405.685 68.9212ZM381.511 55.4858C380.199 56.895 379.349 58.8386 378.911 61.341C378.814 61.8998 379.251 62.3857 379.81 62.3857H394.558C395.092 62.3857 395.529 61.9241 395.481 61.3896C395.214 58.8143 394.46 56.8221 393.246 55.4373C391.885 53.8823 389.941 53.0806 387.463 53.0806C384.985 53.1049 382.993 53.9066 381.511 55.4858Z" fill="#3C3E6A"/>
<path d="M446.841 57.308L468.731 86.3411C469.193 86.9485 468.756 87.7988 468.003 87.7988H454.47C454.178 87.7988 453.911 87.653 453.741 87.4101L439.528 67.6822C439.164 67.172 438.411 67.172 438.046 67.6822L423.761 87.4101C423.591 87.653 423.323 87.7745 423.032 87.7745H409.572C408.819 87.7745 408.406 86.9242 408.843 86.3168L430.733 57.2838C430.976 56.9679 430.976 56.5063 430.733 56.1905L409.451 27.9349C408.989 27.3275 409.426 26.4771 410.179 26.4771H423.639C423.931 26.4771 424.198 26.6229 424.368 26.8659L438.046 45.8163C438.411 46.3265 439.164 46.3265 439.528 45.8163L453.304 26.8659C453.474 26.6229 453.741 26.5014 454.033 26.5014H467.492C468.245 26.5014 468.659 27.3518 468.221 27.9592L446.866 56.2148C446.598 56.5306 446.598 56.9679 446.841 57.308Z" fill="#3C3E6A"/>
<path d="M53.899 3.14296C54.5178 2.7857 55.2802 2.7857 55.899 3.14296L101.419 29.4242C102.038 29.7814 102.419 30.4417 102.419 31.1562V83.7186C102.419 84.4332 102.038 85.0934 101.419 85.4507L55.899 111.732C55.2802 112.089 54.5178 112.089 53.899 111.732L8.37859 85.4507C7.75979 85.0934 7.37859 84.4332 7.37859 83.7186V31.1562C7.37859 30.4417 7.75979 29.7814 8.37859 29.4242L53.899 3.14296Z" fill="#3C3E6A"/>
<path d="M54.7429 57.1576V74.7432L39.5092 65.9504L12.4358 81.5851L27.723 90.3779L70.0034 65.9504L54.7429 57.1576Z" fill="url(#paint0_linear)"/>
<path d="M97.7984 64.3468L70.0034 48.3113L54.7429 57.1308V57.1576L70.0034 65.9504L97.7449 81.9592L97.7984 64.3468Z" fill="url(#paint1_linear)"/>
<path d="M54.7429 57.1575V57.1308H54.7162L39.8833 48.5518L12.4091 32.7033V50.3157L39.5092 65.9504L54.7429 57.1575Z" fill="url(#paint2_linear)"/>
<path d="M54.7429 57.1576L39.5092 65.9504L54.7429 74.7432V57.1576Z" fill="#3AE8D3"/>
<path d="M54.7429 57.1308V39.5184L39.4824 48.338L39.8833 48.5518L54.7429 57.1308Z" fill="#8290FF"/>
<path d="M97.7449 32.3291L82.4844 23.5363L54.7429 39.5184L70.0034 48.3113L97.7449 32.3291Z" fill="url(#paint3_linear)"/>
<path d="M70.0034 48.3113L54.7429 39.5184V57.1308L70.0034 48.3113Z" fill="url(#paint4_linear)"/>
<path d="M54.7429 57.1308L39.8833 48.5518L54.7162 57.1308H54.7429Z" fill="url(#paint5_linear)"/>
<defs>
<linearGradient id="paint0_linear" x1="12.4401" y1="73.7608" x2="69.9962" y2="73.7608" gradientUnits="userSpaceOnUse">
<stop offset="3.6901e-07" stop-color="#8987FF"/>
<stop offset="1" stop-color="#00D4A0"/>
</linearGradient>
<linearGradient id="paint1_linear" x1="54.7427" y1="65.1457" x2="97.7989" y2="65.1457" gradientUnits="userSpaceOnUse">
<stop offset="1.19808e-07" stop-color="#7E94F6"/>
<stop offset="1" stop-color="#00D4A0"/>
</linearGradient>
<linearGradient id="paint2_linear" x1="12.4005" y1="49.325" x2="54.7424" y2="49.325" gradientUnits="userSpaceOnUse">
<stop offset="3.6901e-07" stop-color="#8987FF"/>
<stop offset="1" stop-color="#00D4A0"/>
</linearGradient>
<linearGradient id="paint3_linear" x1="54.7483" y1="35.9243" x2="97.7538" y2="35.9243" gradientUnits="userSpaceOnUse">
<stop stop-color="#8EBEED"/>
<stop offset="1" stop-color="#00D4A0"/>
</linearGradient>
<linearGradient id="paint4_linear" x1="54.7427" y1="48.3249" x2="70.0146" y2="48.3249" gradientUnits="userSpaceOnUse">
<stop offset="3.6901e-07" stop-color="#9BAAFF"/>
<stop offset="1" stop-color="#9CFFF9"/>
</linearGradient>
<linearGradient id="paint5_linear" x1="39.8798" y1="52.8509" x2="54.7301" y2="52.8509" gradientUnits="userSpaceOnUse">
<stop offset="3.6901e-07" stop-color="#8987FF"/>
<stop offset="1" stop-color="#00D4A0"/>
</linearGradient>
</defs>
</svg>
